HIERARCHY
ROOT Hips
{
 OFFSET 0.000000 0.000000 0.000000
 CHANNELS 6 Xposition Yposition Zposition Yrotation Xrotation Zrotation
 JOINT Chest
 {
  OFFSET 0.000000 9.585900 0.002600
  CHANNELS 3 Yrotation Xrotation Zrotation
  JOINT Chest2
  {
   OFFSET 0.000000 9.601200 -0.005300
   CHANNELS 3 Yrotation Xrotation Zrotation
   JOINT Chest3
   {
    OFFSET 0.000000 9.561800 0.000000
    CHANNELS 3 Yrotation Xrotation Zrotation
    JOINT Chest4
    {
     OFFSET 0.000000 9.552100 0.000000
     CHANNELS 3 Yrotation Xrotation Zrotation
     JOINT Neck
     {
      OFFSET 0.000000 14.453000 0.000000
      CHANNELS 3 Yrotation Xrotation Zrotation
      JOINT Head
      {
       OFFSET 0.000000 8.936500 -0.011300
       CHANNELS 3 Yrotation Xrotation Zrotation
       End Site
       {
        OFFSET 0.000000 17.073600 -0.006000
       }
      }
     }
     JOINT RightCollar
     {
      OFFSET -2.921100 9.558500 0.000000
      CHANNELS 3 Yrotation Xrotation Zrotation
      JOINT RightShoulder
      {
       OFFSET -13.519700 0.000000 0.000000
       CHANNELS 3 Yrotation Xrotation Zrotation
       JOINT RightElbow
       {
        OFFSET 0.000000 -29.696600 0.000000
        CHANNELS 3 Yrotation Xrotation Zrotation
        JOINT RightWrist
        {
         OFFSET 0.000000 -24.004700 0.000000
         CHANNELS 3 Yrotation Xrotation Zrotation
         End Site
         {
          OFFSET 0.000000 -17.728500 0.000000
         }
        }
       }
      }
     }
     JOINT LeftCollar
     {
      OFFSET 2.921100 9.558500 0.000000
      CHANNELS 3 Yrotation Xrotation Zrotation
      JOINT LeftShoulder
      {
       OFFSET 13.519700 0.000000 0.000000
       CHANNELS 3 Yrotation Xrotation Zrotation
       JOINT LeftElbow
       {
        OFFSET 0.000000 -29.696600 0.000000
        CHANNELS 3 Yrotation Xrotation Zrotation
        JOINT LeftWrist
        {
         OFFSET 0.000000 -24.004700 0.000000
         CHANNELS 3 Yrotation Xrotation Zrotation
         End Site
         {
          OFFSET 0.000000 -17.728500 0.000000
         }
        }
       }
      }
     }
    }
   }
  }
 }
 JOINT RightHip
 {
  OFFSET -7.771700 -0.012900 -0.001300
  CHANNELS 3 Yrotation Xrotation Zrotation
  JOINT RightKnee
  {
   OFFSET 0.000000 -40.869800 0.001200
   CHANNELS 3 Yrotation Xrotation Zrotation
   JOINT RightAnkle
   {
    OFFSET 0.000000 -39.717900 0.002100
    CHANNELS 3 Yrotation Xrotation Zrotation
    JOINT RightToe
    {
     OFFSET 0.000000 -4.965400 11.033500
     CHANNELS 3 Yrotation Xrotation Zrotation
     End Site
     {
      OFFSET 0.000000 -1.423100 5.872300
     }
    }
   }
  }
 }
 JOINT LeftHip
 {
  OFFSET 7.771700 -0.012900 -0.001300
  CHANNELS 3 Yrotation Xrotation Zrotation
  JOINT LeftKnee
  {
   OFFSET 0.000000 -40.869800 0.001200
   CHANNELS 3 Yrotation Xrotation Zrotation
   JOINT LeftAnkle
   {
    OFFSET 0.000000 -39.717900 0.002100
    CHANNELS 3 Yrotation Xrotation Zrotation
    JOINT LeftToe
    {
     OFFSET 0.000000 -4.965400 11.033500
     CHANNELS 3 Yrotation Xrotation Zrotation
     End Site
     {
      OFFSET 0.000000 -1.423100 5.872300
     }
    }
   }
  }
 }
}
MOTION
Frames: 8
Frame Time: 0.008333
5.854788 52.676896 38.381162 169.973065 -39.772678 -2.406916 4.048582 21.911390 2.206726 0.426842 3.090905 0.380254 0.763959 4.963109 0.624784 3.227044 18.502260 2.756601 0.926861 14.438063 -0.369400 1.881566 -8.971064 -1.047166 -4.882193 -1.859837 -3.038135 -2.435492 -1.184527 3.369053 162.090500 -78.264852 -148.238723 3.559457 1.045984 -5.893729 -3.734212 -0.177043 -0.332311 5.762998 -1.612776 3.565790 140.232749 -75.696274 -157.239203 -6.441828 -9.330152 19.228203 -2.686362 -41.241604 4.727390 149.386918 85.095480 152.730510 -3.568991 -12.091268 -0.874213 0.422444 -0.469272 0.178116 0.149903 -37.952003 7.734993 73.988360 83.039849 63.969591 -5.523727 -12.985947 9.388848 0.206363 1.675637 0.095371
5.853328 52.658875 38.384316 169.936768 -39.768400 -2.373779 4.014399 21.955640 2.178782 0.444250 3.084046 0.376227 0.769662 4.962161 0.622960 3.194048 18.540117 2.742820 0.937937 14.476782 -0.396309 1.911898 -8.898458 -1.101118 -4.847285 -1.912978 -3.079405 -2.389077 -1.214010 3.408558 161.041017 -77.981915 -147.184625 3.594525 0.691181 -6.248268 -3.753963 -0.187816 -0.315164 5.761973 -1.612022 3.583429 140.696116 -75.647587 -157.674423 -6.486362 -9.545333 19.489600 -2.706259 -41.253566 4.678695 149.240133 85.079083 152.614177 -3.502579 -12.077356 -0.937281 0.418593 -0.480054 0.166775 0.190794 -37.960930 7.725828 73.964929 83.054189 63.940265 -5.531821 -12.975922 9.393996 0.219758 1.665909 0.103001
5.850681 52.642542 38.386394 169.922658 -39.771646 -2.356928 4.004620 21.975488 2.165892 0.425645 3.111000 0.372792 0.765331 4.976443 0.620717 3.172056 18.566311 2.728513 0.948205 14.529603 -0.426851 1.941768 -8.799576 -1.161299 -4.823013 -1.974532 -3.118716 -2.179269 -1.295791 3.488848 159.583378 -77.683697 -145.881442 3.617800 0.260167 -6.611743 -3.754529 -0.223322 -0.300729 5.733138 -1.598433 3.609985 141.293536 -75.594073 -158.232686 -6.537041 -9.787496 19.754859 -2.756218 -41.252277 4.660703 149.122870 85.065614 152.497608 -3.472952 -12.068754 -0.960756 0.428324 -0.487964 0.141691 0.218480 -37.963137 7.712274 73.950709 83.065261 63.924189 -5.536094 -12.967051 9.402634 0.228163 1.657851 0.106979
5.845239 52.626177 38.389110 169.915233 -39.767870 -2.336578 3.968410 22.005944 2.134172 0.427503 3.126914 0.371717 0.751613 5.006516 0.618503 3.187870 18.532292 2.717758 0.933868 14.643915 -0.454673 1.971048 -8.675040 -1.227960 -4.839488 -2.001805 -3.154469 -2.008675 -1.352920 3.556564 158.308842 -77.337629 -144.721786 3.621022 -0.243178 -6.960367 -3.745328 -0.250878 -0.296061 5.659797 -1.559905 3.655482 142.047933 -75.529549 -158.939926 -6.592212 -10.046024 20.016634 -2.812681 -41.259355 4.650556 148.929869 85.045916 152.282073 -3.455852 -12.061273 -0.982021 0.414001 -0.494084 0.136041 0.251167 -37.974069 7.683118 73.874362 83.085790 63.845688 -5.517672 -12.951075 9.418776 0.230183 1.646199 0.106551
5.840910 52.611099 38.391742 169.915592 -39.768999 -2.333007 3.936136 22.046727 2.116515 0.435123 3.127585 0.372478 0.743824 5.041333 0.618714 3.157946 18.587581 2.706443 0.955360 14.699989 -0.495575 2.000239 -8.528878 -1.300368 -4.833710 -2.115462 -3.191451 -1.871798 -1.393405 3.612262 157.210825 -76.955716 -143.699998 3.598050 -0.809553 -7.276875 -3.761036 -0.322324 -0.275131 5.641968 -1.563380 3.682535 142.957142 -75.445954 -159.795211 -6.650947 -10.311030 20.264919 -2.881404 -41.253575 4.639083 148.796784 85.038107 152.146895 -3.418077 -12.062992 -1.034068 0.410082 -0.491835 0.142500 0.275603 -37.981321 7.667426 73.806617 83.109314 63.775967 -5.489279 -12.938105 9.443797 0.219490 1.632563 0.099785
5.834083 52.596381 38.394550 169.920232 -39.767757 -2.320270 3.898549 22.089148 2.088556 0.455107 3.099554 0.372518 0.725895 5.110433 0.621577 3.129896 18.650033 2.696986 0.976604 14.760904 -0.539055 2.032977 -8.367169 -1.377666 -4.840769 -2.243651 -3.228336 -1.750075 -1.425396 3.659985 156.242921 -76.538105 -142.791261 3.550208 -1.422915 -7.543636 -3.828780 -0.358817 -0.240682 5.674568 -1.618402 3.698931 143.983278 -75.329562 -160.767751 -6.714044 -10.567267 20.481569 -2.933725 -41.252191 4.612111 148.669078 85.027760 152.015829 -3.391115 -12.066381 -1.078023 0.408521 -0.488577 0.150115 0.297343 -37.986377 7.647936 73.679199 83.143929 63.627756 -5.456639 -12.929176 9.482568 0.180240 1.619452 0.086985
5.829901 52.583427 38.397109 169.920428 -39.775841 -2.320235 3.861299 22.197306 2.078782 0.473091 3.064792 0.370392 0.734502 5.089599 0.619044 3.103286 18.731120 2.693043 0.992399 14.852672 -0.580198 2.076174 -8.195516 -1.458674 -4.866377 -2.349717 -3.261548 -1.647433 -1.445561 3.696273 155.406470 -76.085759 -142.001324 3.488878 -2.067274 -7.751150 -3.840146 -0.429703 -0.230582 5.651281 -1.617028 3.755634 145.069288 -75.161517 -161.816308 -6.776694 -10.791099 20.659021 -2.984517 -41.240272 4.602734 148.505277 85.021033 151.855287 -3.368748 -12.062426 -1.117303 0.409628 -0.490281 0.159394 0.313384 -37.983128 7.640474 73.660376 83.150314 63.611378 -5.471533 -12.925053 9.489663 0.183584 1.616761 0.091387
5.827286 52.571740 38.399976 169.918225 -39.787433 -2.326497 3.846318 22.258430 2.081344 0.450825 3.143374 0.371801 0.766259 5.005159 0.613908 3.075261 18.812545 2.686682 1.015776 14.944904 -0.622066 2.133614 -8.022722 -1.543749 -4.891754 -2.454799 -3.292114 -1.569154 -1.462752 3.728313 154.651987 -75.611534 -141.282321 3.428162 -2.725782 -7.900539 -3.876495 -0.454919 -0.212002 5.678297 -1.648876 3.810267 146.175454 -74.924646 -162.917845 -6.828887 -10.963615 20.803062 -3.011513 -41.224862 4.600899 148.391060 85.019517 151.752823 -3.357211 -12.058040 -1.145723 0.412674 -0.492198 0.165271 0.345710 -37.982364 7.634902 73.664317 83.159850 63.633494 -5.485471 -12.908507 9.493166 0.194015 1.600402 0.099150
